<svg viewBox="0 0 16 16" fill="none" xmlns="http://www.w3.org/2000/svg" style="transform: rotate(0deg);">
    <g clip-path="url(#clip49)" fill="currentColor">
        <path fill-rule="evenodd" clip-rule="evenodd"
            d="M9.099.007L9.05.004h-2.1l-.049.003-.049.006-.048.01-.048.01-.047.013-.046.015-.046.018-.044.02-.044.021-.042.024-.042.026-.04.03-.039.03-.037.031-.036.034-.034.036-.033.038-.03.04-.028.04-.026.04-.024.043-.022.043-.02.045-.018.045-.015.047L6.03.76l-.011.048-.008.048-.006.05-.004.048L6 .997v1.006H2.5l-.046.002-.046.006-.045.011-.044.014-.042.02-.04.021-.039.027-.034.029-.033.033-.03.035-.026.038-.022.041-.02.042-.014.044-.01.045-.007.045L2 2.503l.002.046.007.045.01.045.014.044.02.042.022.041.026.038.03.035.033.033.034.03.039.026.04.022.042.02.044.014.045.01.046.006.046.003h11L13.546 3l.046-.006.045-.01.044-.015.042-.019.04-.022.039-.026.035-.03.033-.033.029-.035.026-.038.022-.041.02-.042.014-.044.01-.045.007-.045.002-.046-.002-.047-.007-.045-.01-.045-.014-.044-.02-.042-.022-.04L13.9 2.2l-.03-.035-.032-.033-.035-.029-.039-.027-.04-.022-.042-.019-.044-.014-.045-.01-.046-.007-.046-.002H10V.997L9.999.953 9.995.904 9.989.855 9.981.807 9.97.76 9.957.712 9.942.665 9.924.62l-.02-.045-.022-.043L9.858.49 9.832.45l-.028-.04-.03-.04-.033-.038-.034-.036-.036-.034L9.634.23 9.595.2 9.555.17 9.513.144 9.471.12 9.427.098 9.383.08 9.337.061 9.291.046 9.244.033l-.048-.01-.048-.01-.049-.006zM9 2.003v-1H7v1h2z">
        </path>
        <path
            d="M3.592 4.01l.045.012.044.015.042.017.04.023.038.027.035.029.033.032.03.036.026.038.023.04.018.043.014.044.012.045.006.046.001.046v10.494l.002.005h7.998l.002-.005V4.457l.007-.046.012-.045.014-.044.018-.042.023-.041.026-.038.03-.035.033-.033.034-.03.039-.026.04-.023.042-.017.044-.015.045-.012.046-.006.046-.002.046.002.046.006.045.012.044.015.042.017.04.023.039.027.034.029.033.032.03.036.026.038.023.04.018.043.014.044.012.045.006.046.001.046v10.55l-.004.052-.007.05-.008.048-.01.048-.014.049-.016.046-.018.046-.02.045-.023.043-.024.042-.053.08-.03.037-.031.036-.034.035-.034.033-.037.031-.037.03-.04.028-.04.026-.043.024-.042.022-.044.02-.046.018-.046.015-.049.014-.048.012-.05.008-.05.006-.05.005H3.95l-.05-.005-.05-.006-.05-.008-.048-.012-.049-.014-.046-.015-.046-.018-.044-.02-.044-.023-.041-.023-.04-.026-.04-.029-.037-.029-.036-.031-.035-.033-.034-.035-.031-.036-.03-.038-.054-.08-.023-.041-.023-.044-.019-.044-.018-.045-.017-.047-.013-.049-.011-.048-.008-.049-.007-.05-.003-.05L3 15.007V4.503l.002-.046.006-.046.012-.045.014-.044.018-.042.023-.041L3.1 4.2l.03-.035.033-.033.034-.03.039-.026.04-.023.042-.017.044-.015.045-.012.046-.006.046-.002.046.002.046.006z">
        </path>
        <path
            d="M6.539 5.004l.039.005.039.007.038.011.036.014.036.016.034.02.033.021.031.024.029.027.026.029.025.031.021.032.02.035.016.035.014.037.01.038.008.038.004.039.002.04v8l-.002.04-.004.038-.008.038-.01.038-.014.037-.016.036-.02.034-.021.032-.025.031-.026.03-.029.026-.031.024-.033.022-.034.02-.036.016-.036.013-.038.011-.039.007-.039.005-.039.002-.039-.002-.039-.005-.039-.007-.038-.01-.036-.014-.036-.017-.034-.019-.033-.022-.031-.024-.029-.027-.026-.029-.025-.03-.021-.033-.02-.034-.016-.036-.014-.037-.01-.038-.008-.038-.004-.039L6 13.503v-8l.002-.04.004-.039.008-.038.01-.038.014-.037.016-.035.02-.035.021-.032.025-.03.026-.03.029-.027.031-.024.033-.022.034-.019.036-.016.036-.014.038-.011.039-.007.039-.005h.078zM9.578 5.01l-.039-.006h-.078l-.039.005-.039.007-.038.011-.036.014-.036.016-.034.02-.033.021-.031.024-.029.027-.026.029-.025.031-.021.032-.02.035-.016.035-.014.037-.01.038-.008.038-.004.039-.002.04v8l.002.04.004.038.008.038.01.038.014.037.016.036.02.034.021.032.025.031.026.03.029.026.031.024.033.022.034.02.036.016.036.013.038.011.039.007.039.005.039.002.039-.002.039-.005.039-.007.038-.01.036-.014.036-.017.034-.019.033-.022.031-.024.029-.027.026-.029.025-.03.021-.033.02-.034.016-.036.014-.037.01-.038.008-.038.004-.039.002-.039v-8l-.002-.04-.004-.039-.008-.038-.01-.038-.014-.037-.016-.035-.02-.035-.021-.032-.025-.03-.026-.03-.029-.027-.031-.024-.033-.022-.034-.019-.036-.016-.036-.014-.038-.011-.039-.007z">
        </path>
    </g>
    <defs>
        <clipPath id="clip49">
            <path fill="#fff" d="M0 0h16v16H0z"></path>
        </clipPath>
    </defs>
</svg>