<svg width="16" height="16" viewBox="0 0 16 16" fill="none" xmlns="http://www.w3.org/2000/svg" style="transform: rotate(0deg);"><path d="M9 5.5V8a.5.5 0 00.8.4l3.964-2.975a.5.5 0 000-.849L9.8 1.601a.5.5 0 00-.8.4v2.5H7.5c-1.343 0-2.71.402-3.75 1.234C2.697 6.578 2 7.845 2 9.501c0 1.655.697 2.923 1.75 3.765 1.04.832 2.406 1.234 3.748 1.235H11.5a.5.5 0 100-1h-4c-1.157 0-2.291-.348-3.125-1.016C3.553 11.828 3 10.845 3 9.501c0-1.345.553-2.328 1.375-2.985.834-.667 1.968-1.015 3.125-1.015H9z" fill="currentColor"></path></svg>