<svg viewBox="0 0 16 16" fill="none" xmlns="http://www.w3.org/2000/svg" style="transform: rotate(0deg);"><g clip-path="url(#clip93)"><path fill-rule="evenodd" clip-rule="evenodd" d="M3.486 1.499l.052.011.05.017.048.022.045.027L5.29 2.649l.061-.03.086-.042.087-.04.087-.039.089-.038.089-.036.089-.035.091-.033.091-.032.071-.024L6.51.405l.013-.052.018-.049.024-.047.028-.045.033-.04.037-.039L6.704.1l.044-.029.047-.024.049-.019.051-.014.052-.009L7 .003h2l.053.002.052.01.051.013.049.02.047.023.044.03.041.032.037.038.033.041.028.045.024.047.018.05.013.051.379 1.895.071.024.091.032.091.033.089.035.089.036.089.038.087.039.087.04.086.042.061.03 1.609-1.073.045-.027.048-.022.05-.017.052-.011.052-.006h.053l.053.005.051.011.051.016.048.021.046.026.042.031.04.036 1.414 1.414.035.04.031.042.027.046.021.048.016.05.011.052.005.052v.053l-.006.053-.012.051-.017.05-.022.048-.027.046-1.072 1.609.03.06.042.086.04.087.039.088.037.088.037.09.034.09.034.09.032.091.023.07 1.896.38.051.012.05.02.047.022.045.029.041.033.037.037.034.04.029.045.024.047.019.05.014.05.008.052.003.053v2l-.003.052-.008.052-.014.051-.019.05-.024.047-.029.044-.034.041-.037.037-.041.033-.045.028-.047.023-.05.02-.051.012-1.896.379-.023.07-.032.092-.034.09-.034.09-.037.09-.037.087-.039.088-.04.087-.042.086-.03.06 1.072 1.61.027.045.022.048.017.05.012.051.006.053v.053l-.005.052-.011.052-.016.05-.021.05-.027.044-.031.043-.035.04-1.414 1.414-.04.035-.042.031-.046.026-.048.021-.051.017-.051.01-.053.005h-.053l-.052-.006-.052-.01-.05-.018-.048-.022-.045-.027-1.609-1.073-.061.031-.086.041-.087.04-.087.04-.089.037-.089.036-.089.035-.091.033-.091.032-.071.024-.379 1.896-.013.051-.018.05-.024.047-.028.044-.033.041-.037.038-.041.033-.044.03-.047.024-.049.02-.051.012-.052.01-.053.002H7L6.947 16l-.052-.009-.051-.013-.049-.019-.047-.025-.044-.029-.041-.033-.037-.038-.033-.04-.028-.045-.024-.048-.018-.049-.013-.05-.379-1.897-.071-.024-.091-.032-.091-.033-.089-.035-.089-.036-.089-.038-.087-.039-.087-.04-.086-.04-.061-.032-1.609 1.073-.045.027-.048.022-.05.017-.052.011-.052.006h-.053l-.053-.005-.051-.01-.051-.017-.048-.02-.046-.027-.042-.03-.04-.036-1.414-1.415-.035-.039-.031-.043-.027-.045-.021-.049-.016-.05-.011-.052-.005-.052v-.053l.006-.053.012-.05.017-.05.022-.049.027-.046 1.072-1.609-.03-.06-.042-.086-.04-.087-.039-.088-.037-.088-.037-.089-.034-.09-.034-.09-.032-.092-.023-.07-1.896-.379-.051-.013-.05-.019-.047-.023-.045-.028-.041-.033-.037-.037-.034-.041-.029-.044-.024-.047-.019-.05-.014-.051-.008-.052L0 9.003v-2l.003-.053.008-.052.014-.05.019-.05.024-.047.029-.045.034-.04.037-.037.041-.033.045-.029.047-.023.05-.019.051-.013 1.896-.379.023-.07.032-.09.034-.092.034-.09.037-.089.037-.088.039-.088.04-.087.042-.086.03-.06-1.072-1.609-.027-.046-.022-.048-.017-.05-.012-.05-.006-.054v-.053l.005-.052.011-.052.016-.05.021-.048.027-.046.031-.043.035-.039L3.05 1.639l.04-.036.042-.031.046-.026.048-.021.051-.016.051-.01.053-.006h.053l.052.006zm7.344 10.783l.049.012.047.017.045.021.043.025 1.518 1.013.835-.835-1.012-1.518-.026-.043-.021-.046-.017-.047-.011-.048-.007-.05-.002-.05.003-.05.008-.049.013-.049.018-.047.022-.044.041-.073.038-.07.037-.07.036-.07.035-.073.033-.072.033-.073.031-.074.03-.074.029-.075.028-.075.027-.076.025-.077.024-.076.023-.078.023-.082.016-.047.021-.046.025-.043.029-.041.033-.037.037-.034.039-.031.043-.026.045-.02.047-.018.049-.013L15 8.593v-1.18l-1.788-.358-.049-.012-.047-.017-.045-.022-.043-.026-.04-.03-.036-.034-.033-.038-.029-.04-.025-.044-.021-.045-.016-.048-.023-.082-.023-.077-.024-.077-.025-.077-.027-.076-.028-.075-.029-.075-.03-.074-.031-.073-.033-.073-.033-.073-.035-.07-.036-.072-.037-.07-.038-.07-.041-.073-.022-.045-.018-.047-.013-.048-.008-.05-.003-.05.002-.05.007-.049.011-.049.017-.047.021-.046.026-.043 1.012-1.518-.835-.834-1.518 1.012-.043.025-.045.022-.047.016-.049.012-.05.007-.05.002-.05-.003-.049-.009-.048-.013-.047-.017-.045-.023-.073-.04-.069-.039-.071-.037-.071-.035-.072-.035-.072-.034-.073-.032-.074-.031-.074-.03-.074-.03-.076-.027-.076-.027-.076-.025-.077-.025-.078-.023-.081-.023-.048-.015-.046-.021-.043-.025-.041-.029-.037-.033-.034-.037-.03-.04-.026-.042-.022-.046-.017-.047-.012-.048-.358-1.788H7.41l-.358 1.788-.012.048-.017.047-.022.046-.026.042-.03.04-.034.037-.037.033-.041.029-.043.025-.046.021-.048.015-.081.023-.078.023-.077.025-.076.025-.076.027-.076.027-.074.03-.074.03-.074.031-.073.032-.072.034-.072.035-.071.035-.071.037-.069.038-.073.041-.045.023-.047.017-.048.013-.049.009-.05.003-.05-.002-.05-.007-.049-.012-.047-.016-.045-.022-.043-.025-1.518-1.012-.835.834 1.012 1.518.026.043.021.046.017.047.011.05.007.048.002.05-.003.05-.008.05-.013.048-.018.047-.022.045-.041.072-.038.07-.037.071-.036.071-.035.071-.033.073-.033.073-.031.073-.03.074-.029.075-.028.075-.027.076-.025.077-.024.077-.023.077-.023.082-.016.048-.021.045-.025.044-.029.04-.033.038-.037.034-.039.03-.043.026-.045.022-.047.017-.049.012L1 7.413v1.18l1.788.357.049.013.047.017.045.021.043.026.04.031.036.034.033.037.029.041.025.043.021.046.016.047.023.082.023.078.024.076.025.077.027.076.028.075.029.075.03.074.031.074.033.073.033.072.035.072.036.071.037.07.038.07.041.073.022.044.018.047.013.048.008.05.003.05-.002.05-.007.05-.011.048-.017.047-.021.046-.026.043-1.012 1.518.835.835 1.518-1.013.043-.025.045-.02.047-.018.049-.012.05-.007.05-.002.05.004.049.008.048.013.047.018.045.022.073.041.069.038.071.037.071.036.072.034.072.034.073.032.074.032.074.03.074.03.076.027.076.026.076.026.077.024.078.023.081.023.048.016.046.02.043.025.041.03.037.032.034.037.03.04.026.043.022.045.017.047.012.048.358 1.79h1.18l.358-1.79.012-.048.017-.047.022-.045.026-.043.03-.04.034-.037.037-.033.041-.029.043-.025.046-.02.048-.016.081-.023.078-.023.077-.024.076-.026.076-.026.076-.028.074-.029.074-.03.074-.032.073-.032.072-.034.072-.034.071-.036.071-.037.069-.038.073-.04.045-.023.047-.018.048-.013.049-.008.05-.004.05.002.05.007zM8.077 5.003l.077.003.076.005.076.007.075.008.075.011.074.012.074.014.073.016.072.018.072.02.07.02.071.023.069.025.069.026.067.028.067.029.066.031.066.032.064.034.063.035.062.037.062.039.06.039.059.041.059.043.057.044.056.045.055.046.054.048.052.05.052.05.05.051.049.052.048.054.046.055.045.056.044.058.043.058.041.06.04.06.038.061.037.062.035.063.034.065.033.065.03.066.03.067.027.067.027.069.024.07.023.07.021.071.019.071.018.073.016.072.014.074.012.074.011.075.008.075.007.076.005.076.003.077.001.077-.001.077-.003.077-.005.077-.007.075-.008.076-.011.075-.012.074-.014.073-.016.073-.018.073-.019.071-.021.071-.023.07-.024.07-.027.068-.027.068-.03.067-.03.066-.033.065-.034.064-.035.064-.037.062-.038.061-.04.061-.041.06-.043.057-.044.057-.045.057-.046.055-.048.053-.049.053-.05.051-.052.051-.052.05-.054.046-.055.047-.056.045-.057.044-.059.042-.059.041-.06.04-.062.04-.062.035-.063.036-.064.034-.066.032-.066.031-.067.03-.067.027-.069.026-.069.025-.071.022-.07.021-.072.02-.072.018-.073.015-.074.015-.074.012-.075.01-.075.01-.076.006-.076.005-.077.002-.077.001h-.077l-.077-.003-.076-.005-.076-.007-.076-.009-.074-.01-.075-.012-.073-.015-.073-.015-.072-.018-.072-.02-.071-.02-.07-.023-.069-.025-.069-.026-.068-.028-.067-.029-.066-.03-.065-.033-.064-.034-.064-.036-.062-.036-.061-.039-.061-.04-.059-.04-.058-.043-.057-.044-.056-.045-.055-.047-.054-.047-.053-.049-.051-.05-.05-.052-.049-.053-.048-.053-.047-.056-.045-.056-.044-.057-.042-.058-.041-.059-.04-.061-.038-.061-.037-.062-.036-.064-.034-.064-.032-.065-.031-.066-.029-.067-.028-.068-.026-.068-.024-.07-.023-.07-.021-.07-.02-.072-.017-.073-.016-.073-.014-.073-.013-.074-.01-.075-.009-.076-.007-.075-.004-.077-.003-.076L5 8.002l.001-.077.003-.076.004-.077.007-.076.009-.075.01-.075.013-.074.014-.074.016-.072.017-.073.02-.07.021-.072.023-.07.024-.07.026-.068.028-.068.029-.067.031-.066.032-.065.034-.065.036-.063.037-.062.038-.062.04-.06.041-.059.042-.058.044-.058.045-.056.047-.055.048-.054.049-.052.05-.052.051-.05.053-.049.054-.048.055-.046.056-.045.057-.044.058-.043.059-.041.061-.039.061-.039.062-.037.064-.035.064-.034.065-.032.066-.031.067-.029.068-.028.069-.026.069-.025.07-.023.071-.02.072-.02.072-.018.073-.016.073-.014.075-.012.074-.011.076-.008.076-.007.076-.005.077-.003L8 5.002l.077.001zm-.129 1l-.051.002-.051.003-.051.005-.05.006-.05.007-.049.008-.049.01-.049.01-.048.011-.048.013-.047.014-.046.015-.046.017-.046.017-.045.018-.045.02-.044.021-.043.021-.043.023-.042.023-.041.025-.041.025-.041.027-.039.027-.039.029-.038.029-.038.03-.037.031-.036.032-.035.033-.034.033-.034.035-.033.035-.031.036-.031.037-.03.037-.03.04-.028.037-.028.04-.026.04-.026.041-.024.042-.024.042-.022.043-.022.043-.021.044-.019.045-.019.045-.017.045-.016.046-.015.047-.014.047-.013.048-.012.048-.01.048-.01.049-.008.05-.007.049-.006.05-.004.051-.004.051-.001.052L6 8.002l.001.052.001.052.004.051.004.05.006.051.007.05.008.049.01.05.01.047.012.048.013.048.014.047.015.046.016.047.017.045.019.045.019.045.021.044.022.043.022.043.024.042.024.042.026.04.026.041.028.04.028.038.03.039.03.037.031.037.031.036.033.035.034.034.034.034.035.033.036.031.037.032.038.03.038.029.039.028.039.028.041.026.041.026.041.025.042.023.043.023.043.021.044.021.045.02.045.018.046.017.046.016.046.015.047.015.048.012.048.012.049.011.049.01.049.007.05.007.05.006.051.005.051.003.051.002h.104L8.103 10l.051-.003.051-.005.05-.006.05-.007.049-.008.049-.009.049-.01.048-.013.047-.012.047-.015.047-.015.046-.016.046-.017.045-.019.044-.019.044-.021.044-.02.042-.024.042-.023.042-.025.041-.026.04-.026.04-.028.039-.028.038-.029.037-.03.037-.032.036-.03.035-.034.035-.034.033-.034.033-.035.032-.036.031-.037.03-.038.029-.038.029-.039.027-.039.027-.04.025-.041.025-.042.024-.042.022-.043.022-.043.02-.044.02-.045.018-.045.018-.045.016-.047.015-.046.014-.047.013-.048.012-.048.01-.048.009-.049.009-.05.007-.049.005-.05.005-.052.003-.051.002-.051.001-.052-.001-.051-.002-.052-.003-.051-.005-.051-.005-.05-.007-.049-.009-.05-.009-.049-.01-.048-.012-.048-.013-.048-.014-.047-.015-.047-.016-.046-.018-.045-.018-.046-.02-.044-.02-.044-.022-.043-.022-.043-.024-.042-.025-.042-.025-.041-.027-.04-.027-.04-.029-.038-.029-.039-.03-.037-.031-.037-.032-.036-.033-.035-.033-.034-.035-.034-.035-.033-.036-.032-.037-.03-.037-.03-.038-.03-.039-.029-.04-.027-.04-.027-.041-.025-.042-.025-.042-.023-.042-.023-.044-.022-.044-.02-.044-.02-.045-.018-.046-.017-.046-.017-.047-.015-.047-.014-.047-.013-.048-.011-.049-.011-.049-.009-.049-.008-.05-.007-.05-.006-.051-.005-.051-.003-.051-.002L8 6.002l-.052.001z" fill="currentColor"></path></g><defs><clipPath id="clip93"><path fill="#fff" d="M0 0h16v16H0z"></path></clipPath></defs></svg>