<svg viewBox="0 0 16 16" fill="none" xmlns="http://www.w3.org/2000/svg" style="transform: rotate(0deg);">
    <circle cx="8" cy="8" r="8" fill="currentColor"></circle>
    <path
        d="M3.767 4.793A2.756 2.756 0 003 6.708c0 .718.276 1.407.767 1.915l3.515 3.635a.998.998 0 001.436 0l3.515-3.635A2.755 2.755 0 0013 6.708c0-.718-.276-1.407-.767-1.915A2.576 2.576 0 0010.38 4c-.695 0-1.36.285-1.852.793L8 5.34l-.53-.547A2.576 2.576 0 005.62 4c-.695 0-1.36.285-1.852.793z"
        fill="var(--color-accent)"></path>
</svg>