<svg width="16" height="16" viewBox="0 0 16 16" fill="none" xmlns="http://www.w3.org/2000/svg" style="transform: rotate(0deg);"><path fill-rule="evenodd" clip-rule="evenodd" d="M2.189 9.106a.704.704 0 00-.191.358l-.988 4.941a.499.499 0 00.588.588l4.94-.988a.695.695 0 00.358-.192l5.674-5.674 2.576-2.576a1.497 1.497 0 000-2.121l-1.293-1.293L12.561.856a1.503 1.503 0 00-2.122 0l-8.25 8.25zM6.5 12.795l5.793-5.793L9 3.71 3.207 9.502 6.5 12.795zm-1.014.4l-2.679-2.678-.67 3.348 3.349-.67zm8.953-8.339L13 6.295 9.707 3.002l1.439-1.439a.5.5 0 01.708 0c.71.712 1.804 1.805 2.533 2.534l.052.052a.5.5 0 010 .707z" fill="currentColor"></path></svg>