<svg aria-hidden="true" style="position: absolute; width: 0; height: 0; overflow: hidden;" version="1.1"
    xmlns="http://www.w3.org/2000/svg" xmlns:xlink="http://www.w3.org/1999/xlink">
    <defs>
        <symbol id="icon_arrow_up" viewBox="0 0 32 32">
            <path transform="rotate(180 16 16)" fill="var(--main-text-color)"
                d="M23.47 11.429l-7.47 7.485-7.47-7.485c-0.141-0.141-0.336-0.228-0.551-0.228-0.431 0-0.78 0.349-0.78 0.78 0 0.216 0.087 0.411 0.229 0.552v0l7.99 8.006c0.143 0.161 0.351 0.262 0.582 0.262 0.216 0 0.411-0.088 0.552-0.23l0-0 8.019-8.037c0.142-0.141 0.229-0.337 0.229-0.553 0-0.431-0.349-0.781-0.781-0.781-0.215 0-0.41 0.087-0.551 0.228l0-0z">
            </path>
        </symbol>
        <symbol id="icon_menu" fill="var(--main-text-color)" xmlns="http://www.w3.org/2000/svg" viewBox="0 0 30 30">
            <path stroke="var(--main-text-color)" stroke-linecap="round" stroke-linejoin="round" stroke-miterlimit="10"
                stroke-width="2" d="M3 15L27 15M3 8L27 8M3 22L27 22" />
        </symbol>
        <symbol id="icon_close" viewBox="0 0 32 32">
            <path
                d="M24.956 8.929l-1.885-1.885-7.071 7.071-7.071-7.071-1.885 1.885 7.071 7.071-7.071 7.071 1.885 1.885 7.071-7.071 7.071 7.071 1.885-1.885-7.071-7.071z">
            </path>
        </symbol>
        <symbol id="icon_delete" viewBox="0 0 32 32">
            <path
                d="M18.198 0.014l0.098 0.012 0.192 0.040 0.094 0.026 0.092 0.030 0.092 0.038 0.088 0.036 0.088 0.044 0.084 0.048 0.084 0.052 0.080 0.060 0.078 0.060 0.074 0.064 0.072 0.068 0.068 0.072 0.066 0.076 0.060 0.080 0.056 0.080 0.052 0.080 0.048 0.084 0.044 0.086 0.040 0.090 0.036 0.090 0.030 0.094 0.026 0.096 0.022 0.094 0.016 0.096 0.012 0.098 0.008 0.098 0.002 0.088v2.010l7.094 0.004 0.092 0.014 0.090 0.020 0.088 0.028 0.084 0.038 0.080 0.044 0.078 0.054 0.070 0.058 0.064 0.066 0.060 0.070 0.050 0.080 0.044 0.080 0.040 0.084 0.028 0.088 0.020 0.090 0.014 0.090 0.004 0.094-0.004 0.092-0.014 0.090-0.020 0.090-0.028 0.088-0.040 0.084-0.044 0.082-0.052 0.076-0.058 0.070-0.066 0.066-0.070 0.060-0.078 0.052-0.080 0.044-0.084 0.038-0.088 0.030-0.090 0.020-22.458-0.020-0.088-0.028-0.084-0.040-0.080-0.044-0.078-0.052-0.068-0.060-0.066-0.066-0.060-0.070-0.052-0.076-0.044-0.082-0.040-0.084-0.028-0.088-0.020-0.090-0.014-0.090-0.004-0.092 0.004-0.094 0.014-0.090 0.020-0.090 0.028-0.088 0.040-0.084 0.044-0.082 0.052-0.076 0.060-0.070 0.066-0.066 0.068-0.058 0.078-0.054 0.080-0.042 0.084-0.040 0.088-0.028 0.090-0.022 0.092-0.012 7.092-0.004v-2.012l0.002-0.086 0.008-0.096 0.012-0.1 0.016-0.096 0.022-0.096 0.026-0.096 0.030-0.094 0.036-0.090 0.040-0.090 0.044-0.086 0.048-0.086 0.052-0.080 0.056-0.080 0.060-0.080 0.066-0.076 0.068-0.072 0.072-0.068 0.074-0.062 0.078-0.060 0.080-0.060 0.084-0.052 0.084-0.048 0.088-0.042 0.088-0.040 0.092-0.036 0.092-0.030 0.094-0.026 0.192-0.040 0.098-0.012 0.098-0.006h4.2l0.098 0.006zM18 4.006v-2h-4v2h4z">
            </path>
            <path
                d="M7.184 8.020l0.090 0.024 0.088 0.030 0.084 0.034 0.080 0.046 0.076 0.054 0.070 0.058 0.066 0.064 0.060 0.072 0.052 0.076 0.046 0.080 0.036 0.086 0.028 0.088 0.024 0.090 0.012 0.092 0.002 0.092v20.988l0.004 0.010 16-0.010v-21.080l0.014-0.092 0.024-0.090 0.028-0.088 0.036-0.084 0.046-0.082 0.052-0.076 0.060-0.070 0.066-0.066 0.068-0.060 0.078-0.052 0.080-0.046 0.084-0.034 0.088-0.030 0.090-0.024 0.092-0.012 0.092-0.004 0.092 0.004 0.092 0.012 0.090 0.024 0.088 0.030 0.084 0.034 0.080 0.046 0.078 0.054 0.068 0.058 0.066 0.064 0.060 0.072 0.052 0.076 0.046 0.080 0.036 0.086 0.028 0.088 0.024 0.090 0.012 0.092 0.002 0.092v21.1l-0.008 0.104-0.014 0.1-0.016 0.096-0.020 0.096-0.028 0.098-0.032 0.092-0.036 0.092-0.040 0.090-0.046 0.086-0.048 0.084-0.106 0.16-0.060 0.074-0.062 0.072-0.068 0.070-0.068 0.066-0.074 0.062-0.074 0.060-0.080 0.056-0.080 0.052-0.086 0.048-0.084 0.044-0.088 0.040-0.092 0.036-0.092 0.030-0.098 0.028-0.096 0.024-0.1 0.016-0.1 0.012-0.1 0.010-16.502-0.038-0.096-0.024-0.098-0.028-0.092-0.030-0.092-0.036-0.088-0.040-0.088-0.046-0.082-0.046-0.080-0.052-0.080-0.058-0.074-0.058-0.072-0.062-0.070-0.066-0.068-0.070-0.062-0.072-0.060-0.076-0.108-0.16-0.046-0.082-0.046-0.088-0.038-0.088-0.036-0.090-0.034-0.094-0.026-0.098-0.022-0.096-0.016-0.098-0.014-0.1-0.006-0.1-0.006-0.094v-21.008l0.004-0.092 0.012-0.092 0.024-0.090 0.028-0.088 0.036-0.084 0.046-0.082 0.050-0.078 0.060-0.070 0.066-0.066 0.068-0.060 0.078-0.052 0.080-0.046 0.084-0.034 0.088-0.030 0.090-0.024 0.092-0.012 0.092-0.004 0.092 0.004 0.092 0.012z">
            </path>
            <path
                d="M13.078 10.008l0.078 0.010 0.078 0.014 0.076 0.022 0.072 0.028 0.072 0.032 0.068 0.040 0.066 0.042 0.062 0.048 0.058 0.054 0.052 0.058 0.050 0.062 0.042 0.064 0.040 0.070 0.032 0.070 0.028 0.074 0.020 0.076 0.016 0.076 0.008 0.078 0.004 0.080v16l-0.004 0.080-0.008 0.076-0.016 0.076-0.020 0.076-0.028 0.074-0.032 0.072-0.040 0.068-0.042 0.064-0.050 0.062-0.052 0.060-0.058 0.052-0.062 0.048-0.066 0.044-0.068 0.040-0.072 0.032-0.072 0.026-0.076 0.022-0.078 0.014-0.078 0.010-0.078 0.004-0.078-0.004-0.078-0.010-0.078-0.014-0.076-0.020-0.072-0.028-0.072-0.034-0.068-0.038-0.066-0.044-0.062-0.048-0.058-0.054-0.052-0.058-0.050-0.060-0.042-0.066-0.040-0.068-0.032-0.072-0.028-0.074-0.020-0.076-0.016-0.076-0.008-0.078-0.004-0.078v-16l0.004-0.080 0.008-0.078 0.016-0.076 0.020-0.076 0.028-0.074 0.032-0.070 0.040-0.070 0.042-0.064 0.050-0.060 0.052-0.060 0.058-0.054 0.062-0.048 0.066-0.044 0.068-0.038 0.072-0.032 0.072-0.028 0.076-0.022 0.078-0.014 0.078-0.010h0.156zM19.156 10.020l-0.078-0.012h-0.156l-0.078 0.010-0.078 0.014-0.076 0.022-0.072 0.028-0.072 0.032-0.068 0.040-0.066 0.042-0.062 0.048-0.058 0.054-0.052 0.058-0.050 0.062-0.042 0.064-0.040 0.070-0.032 0.070-0.028 0.074-0.020 0.076-0.016 0.076-0.008 0.078-0.004 0.080v16l0.004 0.080 0.008 0.076 0.016 0.076 0.020 0.076 0.028 0.074 0.032 0.072 0.040 0.068 0.042 0.064 0.050 0.062 0.052 0.060 0.058 0.052 0.062 0.048 0.066 0.044 0.068 0.040 0.072 0.032 0.072 0.026 0.076 0.022 0.078 0.014 0.078 0.010 0.078 0.004 0.078-0.004 0.078-0.010 0.078-0.014 0.076-0.020 0.072-0.028 0.072-0.034 0.068-0.038 0.066-0.044 0.062-0.048 0.058-0.054 0.052-0.058 0.050-0.060 0.042-0.066 0.040-0.068 0.032-0.072 0.028-0.074 0.020-0.076 0.016-0.076 0.008-0.078 0.004-0.078v-16l-0.004-0.080-0.008-0.078-0.016-0.076-0.020-0.076-0.028-0.074-0.032-0.070-0.040-0.070-0.042-0.064-0.050-0.060-0.052-0.060-0.058-0.054-0.062-0.048-0.066-0.044-0.068-0.038-0.072-0.032-0.072-0.028-0.076-0.022-0.078-0.014z">
            </path>
        </symbol>
        <symbol id="icon_edit" viewBox="0 0 32 32">
            <path
                d="M4.378 18.212l16.5-16.5c0.544-0.542 1.294-0.877 2.122-0.877s1.578 0.335 2.122 0.877l5.17 5.172c0.544 0.542 0.881 1.292 0.881 2.121s-0.337 1.579-0.881 2.121l-16.5 16.5c-0.189 0.191-0.434 0.327-0.716 0.384l-9.874 1.975c-0.066 0.014-0.134 0.021-0.204 0.021-0.551 0-0.998-0.447-0.998-0.998 0-0.070 0.007-0.138 0.020-0.198l1.978-9.891c0.056-0.273 0.191-0.517 0.38-0.707zM13 25.59l11.586-11.586-6.586-6.584-11.586 11.584 6.586 6.586zM10.972 26.39l-5.358-5.356-1.34 6.696 6.698-1.34zM28.878 9.712v0c0.181-0.181 0.293-0.431 0.293-0.707s-0.112-0.526-0.293-0.707l-0.104-0.104c-1.458-1.458-3.646-3.644-5.066-5.068l-0-0c-0.181-0.181-0.431-0.294-0.708-0.294s-0.527 0.112-0.708 0.294l-2.878 2.878 6.586 6.586 2.878-2.878z">
            </path>
        </symbol>
        <symbol id="icon_like" viewBox="0 0 16 16">
            <circle cx="8" cy="8" r="8"></circle>
            <path
                d="M3.767 4.793A2.756 2.756 0 003 6.708c0 .718.276 1.407.767 1.915l3.515 3.635a.998.998 0 001.436 0l3.515-3.635A2.755 2.755 0 0013 6.708c0-.718-.276-1.407-.767-1.915A2.576 2.576 0 0010.38 4c-.695 0-1.36.285-1.852.793L8 5.34l-.53-.547A2.576 2.576 0 005.62 4c-.695 0-1.36.285-1.852.793z"
                fill="var(--color-accent)"></path>
        </symbol>
        <symbol id="icon_plus" viewBox="0 0 32 32">
            <path transform="rotate(45 16 16)"
                d="M24.956 8.929l-1.885-1.885-7.071 7.071-7.071-7.071-1.885 1.885 7.071 7.071-7.071 7.071 1.885 1.885 7.071-7.071 7.071 7.071 1.885-1.885-7.071-7.071z">
            </path>
        </symbol>
        <symbol id="icon_select" viewBox="0 0 32 32">
            <path
                d="M14.96 23.548l15.292-17.208c0.184-0.206 0.451-0.336 0.748-0.336 0.553 0 1.001 0.448 1.001 1.001 0 0.256-0.096 0.489-0.254 0.666l0.001-0.001-16 18c-0.184 0.206-0.451 0.335-0.748 0.335-0.277 0-0.527-0.112-0.708-0.293v0l-9-9c-0.181-0.181-0.293-0.431-0.293-0.707 0-0.553 0.448-1.001 1.001-1.001 0.277 0 0.527 0.112 0.708 0.294v0l8.25 8.25z">
            </path>
        </symbol>
        <symbol id="icon_select_all" viewBox="0 0 32 32">
            <path
                d="M21.643 5.813l-12.4 14.88-6.963-6.973c-0.236-0.213-0.549-0.343-0.893-0.343-0.738 0-1.336 0.598-1.336 1.336 0 0.343 0.13 0.656 0.342 0.893l-0.001-0.001 8 8c0.242 0.241 0.575 0.39 0.944 0.39 0.41 0 0.778-0.185 1.023-0.476l0.002-0.002 13.333-16c0.18-0.225 0.289-0.514 0.289-0.829 0-0.736-0.597-1.333-1.333-1.333-0.399 0-0.758 0.176-1.002 0.454l-0.001 0.002zM16.309 21.813l13.333-16c0.246-0.309 0.623-0.505 1.044-0.505 0.736 0 1.333 0.597 1.333 1.333 0 0.337-0.125 0.645-0.331 0.879l0.001-0.002-13.333 16c-0.246 0.28-0.604 0.455-1.003 0.455-0.736 0-1.333-0.597-1.333-1.333 0-0.314 0.109-0.603 0.291-0.831l-0.002 0.003z">
            </path>
        </symbol>
        <symbol id="icon_settings" viewBox="0 0 32 32">
            <path
                d="M6.972 2.998l0.104 0.022 0.1 0.034 0.096 0.044 0.090 0.054 3.218 2.146 0.122-0.060 0.172-0.084 0.174-0.080 0.174-0.078 0.178-0.076 0.178-0.072 0.178-0.070 0.182-0.066 0.182-0.064 0.142-0.048 0.758-3.79 0.026-0.104 0.036-0.098 0.048-0.094 0.056-0.090 0.066-0.080 0.074-0.078 0.082-0.066 0.088-0.058 0.094-0.048 0.098-0.038 0.102-0.028 0.104-0.018 0.106-0.004 4.106 0.004 0.104 0.020 0.102 0.026 0.098 0.040 0.094 0.046 0.088 0.060 0.082 0.064 0.074 0.076 0.066 0.082 0.056 0.090 0.048 0.094 0.036 0.1 0.026 0.102 0.758 3.79 0.142 0.048 0.182 0.064 0.182 0.066 0.178 0.070 0.178 0.072 0.178 0.076 0.174 0.078 0.174 0.080 0.172 0.084 0.122 0.060 3.218-2.146 0.090-0.054 0.096-0.044 0.1-0.034 0.104-0.022 0.104-0.012h0.106l0.106 0.010 0.102 0.022 0.102 0.032 0.096 0.042 0.092 0.052 0.084 0.062 0.080 0.072 2.828 2.828 0.070 0.080 0.062 0.084 0.054 0.092 0.042 0.096 0.032 0.1 0.022 0.104 0.010 0.104v0.106l-0.012 0.106-0.024 0.102-0.034 0.1-0.044 0.096-0.054 0.092-2.144 3.218 0.060 0.12 0.084 0.172 0.080 0.174 0.078 0.176 0.074 0.176 0.074 0.18 0.136 0.36 0.064 0.182 0.046 0.14 3.894 0.784 0.1 0.040 0.094 0.044 0.090 0.058 0.082 0.066 0.074 0.074 0.068 0.080 0.058 0.090 0.048 0.094 0.038 0.1 0.028 0.1 0.016 0.104 0.006 0.106v4l-0.006 0.104-0.016 0.104-0.028 0.102-0.038 0.1-0.048 0.094-0.058 0.088-0.068 0.082-0.074 0.074-0.082 0.066-0.090 0.056-0.094 0.046-0.1 0.040-0.102 0.024-3.792 0.758-0.046 0.14-0.064 0.184-0.136 0.36-0.074 0.18-0.074 0.174-0.078 0.176-0.080 0.174-0.084 0.172-0.060 0.12 2.144 3.22 0.054 0.090 0.044 0.096 0.034 0.1 0.024 0.102 0.012 0.106v0.106l-0.010 0.104-0.022 0.104-0.032 0.1-0.042 0.1-0.054 0.088-0.062 0.086-0.070 0.080-2.828 2.828-0.080 0.070-0.084 0.062-0.092 0.052-0.096 0.042-0.102 0.034-0.102 0.020-0.106 0.010h-0.106l-0.104-0.012-0.104-0.020-0.1-0.036-0.096-0.044-0.090-0.054-3.218-2.146-0.122 0.062-0.172 0.082-0.348 0.16-0.178 0.074-0.178 0.072-0.178 0.070-0.182 0.066-0.182 0.064-0.142 0.048-0.758 3.792-0.026 0.102-0.036 0.1-0.048 0.094-0.056 0.088-0.066 0.082-0.074 0.076-0.082 0.066-0.088 0.060-0.094 0.048-0.098 0.040-0.102 0.024-0.104 0.020-0.106 0.004h-4l-0.106-0.006-0.104-0.018-0.102-0.026-0.098-0.038-0.094-0.050-0.088-0.058-0.082-0.066-0.074-0.076-0.066-0.080-0.056-0.090-0.048-0.096-0.036-0.098-0.026-0.1-0.758-3.794-0.142-0.048-0.182-0.064-0.182-0.066-0.178-0.070-0.178-0.072-0.178-0.076-0.174-0.078-0.174-0.080-0.172-0.080-0.122-0.064-3.218 2.146-0.090 0.054-0.096 0.044-0.1 0.034-0.104 0.022-0.104 0.012h-0.106l-0.106-0.010-0.102-0.020-0.102-0.034-0.096-0.040-0.092-0.054-0.084-0.060-0.080-0.072-2.828-2.83-0.070-0.078-0.062-0.086-0.054-0.090-0.042-0.098-0.032-0.1-0.022-0.104-0.010-0.104v-0.106l0.012-0.106 0.024-0.1 0.034-0.1 0.044-0.098 0.054-0.092 2.144-3.218-0.060-0.12-0.084-0.172-0.080-0.174-0.078-0.176-0.074-0.176-0.074-0.178-0.136-0.36-0.064-0.184-0.046-0.14-3.792-0.758-0.102-0.026-0.1-0.038-0.094-0.046-0.090-0.056-0.082-0.066-0.074-0.074-0.068-0.082-0.058-0.088-0.048-0.094-0.038-0.1-0.028-0.102-0.016-0.104-0.006-0.104v-4l0.006-0.106 0.016-0.104 0.028-0.1 0.038-0.1 0.048-0.094 0.058-0.090 0.068-0.080 0.074-0.074 0.082-0.066 0.090-0.058 0.094-0.046 0.1-0.038 0.102-0.026 3.792-0.758 0.046-0.14 0.064-0.18 0.068-0.184 0.068-0.18 0.074-0.178 0.074-0.176 0.078-0.176 0.080-0.174 0.084-0.172 0.060-0.12-2.144-3.218-0.054-0.092-0.044-0.096-0.034-0.1-0.024-0.1-0.012-0.108v-0.106l0.010-0.104 0.022-0.104 0.032-0.1 0.042-0.096 0.054-0.092 0.062-0.086 0.070-0.078 2.828-2.828 0.080-0.072 0.084-0.062 0.092-0.052 0.096-0.042 0.102-0.032 0.102-0.020 0.106-0.012h0.106l0.104 0.012zM21.66 24.564l0.098 0.024 0.094 0.034 0.090 0.042 0.086 0.050 3.036 2.026 1.67-1.67-2.024-3.036-0.052-0.086-0.042-0.092-0.034-0.094-0.022-0.096-0.014-0.1-0.004-0.1 0.006-0.1 0.016-0.098 0.026-0.098 0.036-0.094 0.044-0.088 0.082-0.146 0.076-0.14 0.074-0.14 0.072-0.14 0.070-0.146 0.066-0.144 0.066-0.146 0.062-0.148 0.060-0.148 0.058-0.15 0.056-0.15 0.054-0.152 0.050-0.154 0.048-0.152 0.046-0.156 0.046-0.164 0.032-0.094 0.042-0.092 0.050-0.086 0.058-0.082 0.066-0.074 0.074-0.068 0.078-0.062 0.086-0.052 0.090-0.040 0.094-0.036 0.098-0.026 3.576-0.714v-2.36l-3.576-0.716-0.098-0.024-0.094-0.034-0.090-0.044-0.086-0.052-0.080-0.060-0.072-0.068-0.066-0.076-0.058-0.080-0.050-0.088-0.042-0.090-0.032-0.096-0.046-0.164-0.046-0.154-0.048-0.154-0.050-0.154-0.054-0.152-0.056-0.15-0.058-0.15-0.060-0.148-0.062-0.146-0.132-0.292-0.142-0.284-0.074-0.14-0.076-0.14-0.082-0.146-0.044-0.090-0.036-0.094-0.026-0.096-0.016-0.1-0.006-0.1 0.004-0.1 0.014-0.098 0.022-0.098 0.034-0.094 0.042-0.092 0.052-0.086 2.024-3.036-1.67-1.668-3.036 2.024-0.086 0.050-0.090 0.044-0.094 0.032-0.098 0.024-0.1 0.014-0.1 0.004-0.1-0.006-0.098-0.018-0.096-0.026-0.094-0.034-0.090-0.046-0.146-0.080-0.138-0.078-0.142-0.074-0.142-0.070-0.144-0.070-0.144-0.068-0.146-0.064-0.148-0.062-0.296-0.12-0.304-0.108-0.152-0.050-0.154-0.050-0.156-0.046-0.162-0.046-0.096-0.030-0.092-0.042-0.086-0.050-0.082-0.058-0.074-0.066-0.068-0.074-0.060-0.080-0.052-0.084-0.044-0.092-0.034-0.094-0.024-0.096-0.716-3.576h-2.36l-0.716 3.576-0.024 0.096-0.034 0.094-0.044 0.092-0.052 0.084-0.060 0.080-0.068 0.074-0.074 0.066-0.082 0.058-0.086 0.050-0.092 0.042-0.096 0.030-0.162 0.046-0.156 0.046-0.154 0.050-0.152 0.050-0.304 0.108-0.296 0.12-0.148 0.062-0.146 0.064-0.144 0.068-0.144 0.070-0.142 0.070-0.142 0.074-0.138 0.076-0.146 0.082-0.090 0.046-0.094 0.034-0.096 0.026-0.098 0.018-0.1 0.006-0.1-0.004-0.1-0.014-0.098-0.024-0.094-0.032-0.090-0.044-0.086-0.050-3.036-2.024-1.67 1.668 2.024 3.036 0.052 0.086 0.042 0.092 0.034 0.094 0.022 0.1 0.014 0.096 0.004 0.1-0.006 0.1-0.016 0.1-0.026 0.096-0.036 0.094-0.044 0.090-0.082 0.144-0.076 0.14-0.074 0.142-0.072 0.142-0.070 0.142-0.132 0.292-0.062 0.146-0.060 0.148-0.058 0.15-0.056 0.15-0.054 0.152-0.050 0.154-0.048 0.154-0.046 0.154-0.046 0.164-0.032 0.096-0.042 0.090-0.050 0.088-0.058 0.080-0.066 0.076-0.074 0.068-0.078 0.060-0.086 0.052-0.090 0.044-0.094 0.034-0.098 0.024-3.576 0.716v2.36l3.576 0.714 0.098 0.026 0.094 0.034 0.090 0.042 0.086 0.052 0.080 0.062 0.072 0.068 0.066 0.074 0.058 0.082 0.050 0.086 0.042 0.092 0.032 0.094 0.046 0.164 0.046 0.156 0.048 0.152 0.050 0.154 0.054 0.152 0.056 0.15 0.058 0.15 0.060 0.148 0.062 0.148 0.066 0.146 0.066 0.144 0.070 0.144 0.072 0.142 0.074 0.14 0.076 0.14 0.082 0.146 0.044 0.088 0.036 0.094 0.026 0.096 0.016 0.1 0.006 0.1-0.004 0.1-0.014 0.1-0.022 0.096-0.034 0.094-0.042 0.092-0.052 0.086-2.024 3.036 1.67 1.67 3.036-2.026 0.086-0.050 0.090-0.040 0.094-0.036 0.098-0.024 0.1-0.014 0.1-0.004 0.1 0.008 0.098 0.016 0.096 0.026 0.094 0.036 0.090 0.044 0.146 0.082 0.138 0.076 0.142 0.074 0.142 0.072 0.288 0.136 0.146 0.064 0.148 0.064 0.296 0.12 0.152 0.054 0.304 0.104 0.154 0.048 0.156 0.046 0.162 0.046 0.096 0.032 0.092 0.040 0.086 0.050 0.082 0.060 0.074 0.064 0.068 0.074 0.060 0.080 0.052 0.086 0.044 0.090 0.034 0.094 0.024 0.096 0.716 3.58h2.36l0.716-3.58 0.024-0.096 0.034-0.094 0.044-0.090 0.052-0.086 0.060-0.080 0.068-0.074 0.074-0.066 0.082-0.058 0.086-0.050 0.092-0.040 0.096-0.032 0.162-0.046 0.156-0.046 0.154-0.048 0.304-0.104 0.152-0.056 0.148-0.058 0.148-0.060 0.148-0.064 0.146-0.064 0.288-0.136 0.142-0.072 0.142-0.074 0.138-0.076 0.146-0.080 0.090-0.046 0.094-0.036 0.096-0.026 0.098-0.016 0.1-0.008 0.1 0.004 0.1 0.014zM16.154 10.006l0.154 0.006 0.152 0.010 0.152 0.014 0.15 0.016 0.15 0.022 0.148 0.024 0.148 0.028 0.146 0.032 0.144 0.036 0.144 0.040 0.14 0.040 0.142 0.046 0.138 0.050 0.138 0.052 0.134 0.056 0.134 0.058 0.132 0.062 0.132 0.064 0.128 0.068 0.126 0.070 0.124 0.074 0.124 0.078 0.12 0.078 0.118 0.082 0.118 0.086 0.114 0.088 0.112 0.090 0.11 0.092 0.108 0.096 0.208 0.2 0.1 0.102 0.098 0.104 0.096 0.108 0.092 0.11 0.090 0.112 0.088 0.116 0.086 0.116 0.082 0.12 0.080 0.12 0.076 0.122 0.074 0.124 0.070 0.126 0.068 0.13 0.066 0.13 0.060 0.132 0.060 0.134 0.054 0.134 0.054 0.138 0.048 0.14 0.046 0.14 0.042 0.142 0.038 0.142 0.036 0.146 0.032 0.144 0.028 0.148 0.024 0.148 0.022 0.15 0.016 0.15 0.014 0.152 0.010 0.152 0.006 0.154 0.002 0.154-0.002 0.154-0.006 0.154-0.010 0.154-0.014 0.15-0.016 0.152-0.022 0.15-0.024 0.148-0.028 0.146-0.032 0.146-0.036 0.146-0.038 0.142-0.042 0.142-0.046 0.14-0.048 0.14-0.108 0.272-0.060 0.134-0.060 0.132-0.066 0.13-0.068 0.128-0.070 0.128-0.074 0.124-0.076 0.122-0.080 0.122-0.082 0.12-0.086 0.114-0.088 0.114-0.090 0.114-0.092 0.11-0.096 0.106-0.098 0.106-0.1 0.102-0.104 0.102-0.104 0.1-0.108 0.092-0.11 0.094-0.112 0.090-0.114 0.088-0.118 0.084-0.118 0.082-0.12 0.080-0.124 0.080-0.124 0.070-0.126 0.072-0.128 0.068-0.132 0.064-0.132 0.062-0.134 0.060-0.134 0.054-0.138 0.052-0.138 0.050-0.142 0.044-0.14 0.042-0.144 0.040-0.144 0.036-0.146 0.030-0.148 0.030-0.148 0.024-0.3 0.040-0.152 0.012-0.152 0.010-0.154 0.004-0.154 0.002h-0.154l-0.154-0.006-0.152-0.010-0.152-0.014-0.152-0.018-0.148-0.020-0.15-0.024-0.292-0.060-0.144-0.036-0.144-0.040-0.142-0.040-0.14-0.046-0.138-0.050-0.138-0.052-0.136-0.056-0.134-0.058-0.132-0.060-0.13-0.066-0.128-0.068-0.128-0.072-0.124-0.072-0.122-0.078-0.122-0.080-0.118-0.080-0.116-0.086-0.114-0.088-0.112-0.090-0.11-0.094-0.108-0.094-0.106-0.098-0.102-0.1-0.1-0.104-0.098-0.106-0.096-0.106-0.094-0.112-0.090-0.112-0.088-0.114-0.084-0.116-0.082-0.118-0.080-0.122-0.076-0.122-0.074-0.124-0.072-0.128-0.068-0.128-0.064-0.13-0.062-0.132-0.058-0.134-0.056-0.136-0.052-0.136-0.048-0.14-0.046-0.14-0.042-0.14-0.040-0.144-0.034-0.146-0.032-0.146-0.028-0.146-0.026-0.148-0.020-0.15-0.018-0.152-0.014-0.15-0.008-0.154-0.006-0.152-0.002-0.156 0.002-0.154 0.006-0.152 0.008-0.154 0.014-0.152 0.018-0.15 0.020-0.15 0.026-0.148 0.028-0.148 0.032-0.144 0.034-0.146 0.040-0.14 0.042-0.144 0.046-0.14 0.048-0.14 0.052-0.136 0.056-0.136 0.058-0.134 0.062-0.132 0.064-0.13 0.068-0.13 0.072-0.126 0.074-0.124 0.076-0.124 0.080-0.12 0.082-0.118 0.084-0.116 0.088-0.116 0.090-0.112 0.094-0.11 0.096-0.108 0.098-0.104 0.1-0.104 0.102-0.1 0.106-0.098 0.108-0.096 0.11-0.092 0.112-0.090 0.114-0.088 0.116-0.086 0.118-0.082 0.244-0.156 0.124-0.074 0.128-0.070 0.128-0.068 0.13-0.064 0.132-0.062 0.134-0.058 0.136-0.056 0.138-0.052 0.138-0.050 0.14-0.046 0.142-0.040 0.144-0.040 0.144-0.036 0.146-0.032 0.146-0.028 0.15-0.024 0.148-0.022 0.152-0.016 0.152-0.014 0.152-0.010 0.154-0.006 0.154-0.002 0.154 0.002zM15.896 12.006l-0.102 0.004-0.102 0.006-0.102 0.010-0.1 0.012-0.1 0.014-0.098 0.016-0.196 0.040-0.096 0.022-0.096 0.026-0.094 0.028-0.092 0.030-0.184 0.068-0.090 0.036-0.090 0.040-0.088 0.042-0.086 0.042-0.086 0.046-0.084 0.046-0.164 0.1-0.082 0.054-0.078 0.054-0.078 0.058-0.076 0.058-0.076 0.060-0.074 0.062-0.072 0.064-0.070 0.066-0.068 0.066-0.068 0.070-0.066 0.070-0.062 0.072-0.062 0.074-0.060 0.074-0.060 0.080-0.056 0.074-0.056 0.080-0.052 0.080-0.052 0.082-0.096 0.168-0.088 0.172-0.042 0.088-0.076 0.18-0.034 0.090-0.032 0.092-0.030 0.094-0.028 0.094-0.026 0.096-0.024 0.096-0.020 0.096-0.020 0.098-0.016 0.1-0.014 0.098-0.012 0.1-0.016 0.204-0.002 0.104-0.002 0.102 0.004 0.208 0.008 0.102 0.008 0.1 0.012 0.102 0.014 0.1 0.016 0.098 0.020 0.1 0.020 0.094 0.024 0.096 0.026 0.096 0.028 0.094 0.030 0.092 0.032 0.094 0.034 0.090 0.076 0.18 0.042 0.088 0.088 0.172 0.096 0.168 0.052 0.080 0.052 0.082 0.056 0.080 0.056 0.076 0.060 0.078 0.060 0.074 0.062 0.074 0.062 0.072 0.066 0.070 0.136 0.136 0.070 0.066 0.072 0.062 0.074 0.064 0.076 0.060 0.076 0.058 0.156 0.112 0.164 0.104 0.082 0.050 0.084 0.046 0.086 0.046 0.086 0.042 0.088 0.042 0.090 0.040 0.090 0.036 0.092 0.034 0.092 0.032 0.092 0.030 0.094 0.030 0.192 0.048 0.098 0.022 0.098 0.020 0.098 0.014 0.1 0.014 0.1 0.012 0.102 0.010 0.102 0.006 0.102 0.004h0.208l0.102-0.004 0.102-0.006 0.102-0.010 0.1-0.012 0.1-0.014 0.098-0.016 0.098-0.018 0.098-0.020 0.096-0.026 0.094-0.024 0.188-0.060 0.092-0.032 0.092-0.034 0.090-0.038 0.088-0.038 0.088-0.042 0.088-0.040 0.084-0.048 0.084-0.046 0.084-0.050 0.082-0.052 0.080-0.052 0.080-0.056 0.078-0.056 0.076-0.058 0.074-0.060 0.074-0.064 0.072-0.060 0.14-0.136 0.066-0.068 0.066-0.070 0.064-0.072 0.062-0.074 0.060-0.076 0.058-0.076 0.058-0.078 0.054-0.078 0.054-0.080 0.050-0.082 0.050-0.084 0.048-0.084 0.088-0.172 0.040-0.088 0.040-0.090 0.072-0.18 0.032-0.094 0.030-0.092 0.028-0.094 0.026-0.096 0.024-0.096 0.020-0.096 0.018-0.098 0.018-0.1 0.014-0.098 0.010-0.1 0.010-0.104 0.006-0.102 0.004-0.102 0.002-0.104-0.002-0.102-0.004-0.104-0.006-0.102-0.010-0.102-0.010-0.1-0.014-0.098-0.018-0.1-0.018-0.098-0.020-0.096-0.024-0.096-0.026-0.096-0.028-0.094-0.030-0.094-0.032-0.092-0.036-0.090-0.036-0.092-0.080-0.176-0.088-0.172-0.048-0.084-0.050-0.084-0.050-0.082-0.108-0.16-0.058-0.076-0.058-0.078-0.060-0.074-0.062-0.074-0.064-0.072-0.066-0.070-0.066-0.068-0.070-0.068-0.070-0.066-0.072-0.064-0.148-0.12-0.076-0.060-0.078-0.058-0.16-0.108-0.082-0.050-0.084-0.050-0.168-0.092-0.088-0.044-0.176-0.080-0.090-0.036-0.184-0.068-0.094-0.030-0.094-0.028-0.094-0.026-0.096-0.022-0.098-0.022-0.098-0.018-0.098-0.016-0.1-0.014-0.1-0.012-0.102-0.010-0.102-0.006-0.102-0.004-0.104-0.002-0.104 0.002z">
            </path>
        </symbol>
        <symbol id="icon_share" viewBox="0 0 32 32">
            <path
                d="M18 11v5c0 0.552 0.448 1 1 1 0.226 0 0.435-0.075 0.602-0.202l-0.003 0.002 7.928-5.95c0.285-0.179 0.472-0.492 0.472-0.849s-0.187-0.669-0.467-0.847l-0.004-0.002-7.928-5.95c-0.165-0.125-0.374-0.2-0.6-0.2-0.552 0-1 0.448-1 1v5h-3c-2.686 0-5.42 0.804-7.5 2.468-2.106 1.686-3.5 4.22-3.5 7.532 0 3.31 1.394 5.846 3.5 7.53 2.080 1.664 4.812 2.468 7.496 2.47h8.004c0.552 0 1-0.448 1-1s-0.448-1-1-1v0h-8c-2.314 0-4.582-0.696-6.25-2.032-1.644-1.314-2.75-3.28-2.75-5.968 0-2.69 1.106-4.656 2.75-5.97 1.668-1.334 3.936-2.030 6.25-2.030h3z">
            </path>
        </symbol>
    </defs>
</svg>